<svg id="Layer_1" data-name="Layer 1" xmlns="http://www.w3.org/2000/svg" viewBox="0 0 47 47"><defs><style>.cls-1{fill:#5f7800;}.cls-2{isolation:isolate;}.cls-3{fill:#fff;}</style></defs><title>2-bullet</title><circle class="cls-1" cx="23.5" cy="23.5" r="23.5"/><g class="cls-2"><path class="cls-3" d="M15.91,29.17a11,11,0,0,1,4.59-4.41l3.4-2a15.94,15.94,0,0,0,3.2-2.27,4.67,4.67,0,0,0,1.45-3.37,4.71,4.71,0,0,0-1.33-3.52,4.83,4.83,0,0,0-3.54-1.3,4.62,4.62,0,0,0-4.53,2.48,8.91,8.91,0,0,0-.74,3.69H15.17a11.37,11.37,0,0,1,1.22-5.4q2.07-3.68,7.31-3.68,4.35,0,6.36,2.35a7.87,7.87,0,0,1,2,5.24,7.12,7.12,0,0,1-2.14,5.2,20.94,20.94,0,0,1-4.44,3l-2.42,1.34a15.73,15.73,0,0,0-2.73,1.82,6.64,6.64,0,0,0-2.23,3.42H31.95v3H14.55A14.78,14.78,0,0,1,15.91,29.17Z"/></g></svg>