<svg id="Layer_3" data-name="Layer 3" xmlns="http://www.w3.org/2000/svg" viewBox="0 0 47 47"><defs><style>.cls-1{fill:#5f7800;}.cls-2{isolation:isolate;}.cls-3{fill:#fff;}</style></defs><title>3-bullet</title><circle class="cls-1" cx="23.5" cy="23.5" r="23.5"/><g class="cls-2"><path class="cls-3" d="M16.31,33.09a9.16,9.16,0,0,1-2-6h3.33a8.25,8.25,0,0,0,.92,3.57q1.24,2,4.48,2a5.87,5.87,0,0,0,4-1.34,4.42,4.42,0,0,0,1.52-3.47A4,4,0,0,0,27,24.18a8.1,8.1,0,0,0-4.45-1H21.87l-0.66,0V20.36L22,20.43l0.73,0a6.65,6.65,0,0,0,2.94-.57,3.6,3.6,0,0,0,2-3.54,3.45,3.45,0,0,0-1.34-2.92,5,5,0,0,0-3.13-1q-3.19,0-4.41,2.12a7.36,7.36,0,0,0-.76,3.33H14.92A9.55,9.55,0,0,1,16.06,13Q18,9.5,22.9,9.5a9.28,9.28,0,0,1,6,1.73,6.06,6.06,0,0,1,2.12,5A5.58,5.58,0,0,1,29.77,20a5.28,5.28,0,0,1-2,1.42,5.5,5.5,0,0,1,3.12,2.11A6.4,6.4,0,0,1,32,27.37a7.81,7.81,0,0,1-2.39,5.91,9.42,9.42,0,0,1-6.78,2.28Q18.34,35.56,16.31,33.09Z"/></g></svg>